<svg width="92" height="73" viewBox="0 0 92 73" fill="none" xmlns="http://www.w3.org/2000/svg">
<path d="M22.4043 12.62H55.6402V24.0029H48.9673V35.214H61.3686V28.9767C60.6688 29.7819 59.963 30.5708 59.2514 31.3436V4.59651H78.9963V5.68837L78.4307 5.89338H78.6905V28.4928L78.9963 28.1626V72.2476H59.2514V49.6689H48.9673V72.1526H29.9505V24.0029H22.4043V12.62Z" fill="#163571"/>
<path fill-rule="evenodd" clip-rule="evenodd" d="M1.71484 54.1084C26.468 62.204 52.7205 59.0086 83.2834 23.3389L89.0889 28.9993L89.9598 1.71302L65.1409 10.7118L72.1075 14.7756C53.8652 42.1586 31.5702 58.4657 1.71484 54.1084Z" fill="#2DA450"/>
<path d="M1.5 54.2108C26.2739 62.3551 52.5484 59.1404 83.1369 23.2561L88.9473 28.9505L89.8188 1.50001L64.9792 10.5529L71.9516 14.6412C53.694 42.189 31.3804 58.5943 1.5 54.2108Z" stroke="white" stroke-width="2.9999" stroke-linejoin="round"/>
</svg>
